<svg width="413" height="193" viewBox="0 0 413 193" fill="none" xmlns="http://www.w3.org/2000/svg">
<rect x="4.5" y="4.5" width="213" height="87" fill="#ECECEC" stroke="#272727" stroke-width="9"/>
<rect y="92" width="380" height="101" fill="#272727"/>
<path d="M39.6617 34.9869C41.4951 34.9869 43.1451 35.3536 44.6117 36.0869C46.0784 36.8202 47.3251 37.9202 48.3517 39.3869H48.5717L49.2317 35.5369H56.1617V65.6219C56.1617 68.4819 55.5934 70.8836 54.4567 72.8269C53.3567 74.7702 51.6884 76.2369 49.4517 77.2269C47.2151 78.2536 44.4467 78.7669 41.1467 78.7669C39.0201 78.7669 37.0401 78.6386 35.2067 78.3819C33.4101 78.1252 31.6501 77.6669 29.9267 77.0069V70.4619C31.1734 70.9752 32.4201 71.3969 33.6667 71.7269C34.9501 72.0936 36.2517 72.3502 37.5717 72.4969C38.9284 72.6802 40.2851 72.7719 41.6417 72.7719C43.7684 72.7719 45.3451 72.2036 46.3717 71.0669C47.4351 69.9302 47.9667 68.2252 47.9667 65.9519V65.3469C47.9667 64.7236 47.9851 64.0819 48.0217 63.4219C48.0951 62.7619 48.1501 62.1752 48.1867 61.6619H47.9667C46.9401 63.2386 45.7117 64.3752 44.2817 65.0719C42.8517 65.7686 41.2384 66.1169 39.4417 66.1169C35.8851 66.1169 33.0984 64.7602 31.0817 62.0469C29.1017 59.2969 28.1117 55.4836 28.1117 50.6069C28.1117 47.3069 28.5701 44.5019 29.4867 42.1919C30.4034 39.8452 31.7234 38.0669 33.4467 36.8569C35.2067 35.6102 37.2784 34.9869 39.6617 34.9869ZM42.2467 41.6419C40.9634 41.6419 39.8817 41.9902 39.0017 42.6869C38.1584 43.3469 37.5167 44.3552 37.0767 45.7119C36.6734 47.0319 36.4717 48.7002 36.4717 50.7169C36.4717 53.7236 36.9484 55.9786 37.9017 57.4819C38.8551 58.9486 40.3401 59.6819 42.3567 59.6819C43.4201 59.6819 44.3367 59.5536 45.1067 59.2969C45.8767 59.0036 46.5001 58.5452 46.9767 57.9219C47.4901 57.2619 47.8751 56.4186 48.1317 55.3919C48.3884 54.3652 48.5167 53.1186 48.5167 51.6519V50.6619C48.5167 48.4986 48.2967 46.7569 47.8567 45.4369C47.4167 44.1169 46.7384 43.1636 45.8217 42.5769C44.9051 41.9536 43.7134 41.6419 42.2467 41.6419ZM81.5064 34.9869C81.9097 34.9869 82.3864 35.0052 82.9364 35.0419C83.4864 35.0786 83.9264 35.1336 84.2564 35.2069L83.6514 42.9069C83.3947 42.8336 83.0097 42.7786 82.4964 42.7419C82.0197 42.6686 81.5981 42.6319 81.2314 42.6319C80.1681 42.6319 79.1414 42.7786 78.1514 43.0719C77.1614 43.3286 76.2631 43.7502 75.4564 44.3369C74.6864 44.9236 74.0631 45.7119 73.5864 46.7019C73.1464 47.6552 72.9264 48.8469 72.9264 50.2769V65.5669H64.7314V35.5369H70.9464L72.1564 40.5969H72.5414C73.1281 39.5702 73.8614 38.6352 74.7414 37.7919C75.6214 36.9486 76.6297 36.2702 77.7664 35.7569C78.9397 35.2436 80.1864 34.9869 81.5064 34.9869ZM100.953 34.9319C104.986 34.9319 108.066 35.8119 110.193 37.5719C112.356 39.2952 113.438 41.9536 113.438 45.5469V65.5669H107.718L106.123 61.4969H105.903C105.059 62.5602 104.179 63.4402 103.263 64.1369C102.383 64.8336 101.356 65.3286 100.183 65.6219C99.0461 65.9519 97.6344 66.1169 95.9478 66.1169C94.1878 66.1169 92.5928 65.7869 91.1628 65.1269C89.7694 64.4302 88.6694 63.3852 87.8628 61.9919C87.0561 60.5619 86.6528 58.7652 86.6528 56.6019C86.6528 53.4119 87.7711 51.0652 90.0078 49.5619C92.2444 48.0219 95.5994 47.1786 100.073 47.0319L105.298 46.8669V45.5469C105.298 43.9702 104.876 42.8152 104.033 42.0819C103.226 41.3486 102.089 40.9819 100.623 40.9819C99.1561 40.9819 97.7261 41.2019 96.3328 41.6419C94.9394 42.0452 93.5461 42.5586 92.1528 43.1819L89.4578 37.6269C91.0711 36.7836 92.8494 36.1236 94.7928 35.6469C96.7728 35.1702 98.8261 34.9319 100.953 34.9319ZM102.108 51.7619C99.4678 51.8352 97.6344 52.3119 96.6078 53.1919C95.5811 54.0719 95.0678 55.2269 95.0678 56.6569C95.0678 57.9036 95.4344 58.8019 96.1678 59.3519C96.9011 59.8652 97.8544 60.1219 99.0278 60.1219C100.788 60.1219 102.273 59.6086 103.483 58.5819C104.693 57.5186 105.298 56.0336 105.298 54.1269V51.6519L102.108 51.7619ZM142.781 56.6569C142.781 58.6736 142.304 60.3969 141.351 61.8269C140.398 63.2202 138.968 64.2836 137.061 65.0169C135.154 65.7502 132.789 66.1169 129.966 66.1169C127.876 66.1169 126.079 65.9702 124.576 65.6769C123.073 65.4202 121.569 64.9802 120.066 64.3569V57.5919C121.679 58.3252 123.421 58.9302 125.291 59.4069C127.161 59.8836 128.811 60.1219 130.241 60.1219C131.854 60.1219 132.991 59.8836 133.651 59.4069C134.348 58.9302 134.696 58.3069 134.696 57.5369C134.696 57.0236 134.549 56.5652 134.256 56.1619C133.999 55.7586 133.413 55.3002 132.496 54.7869C131.579 54.2736 130.149 53.6136 128.206 52.8069C126.336 52.0002 124.796 51.2119 123.586 50.4419C122.376 49.6352 121.478 48.6819 120.891 47.5819C120.304 46.4452 120.011 45.0336 120.011 43.3469C120.011 40.5602 121.093 38.4702 123.256 37.0769C125.419 35.6836 128.298 34.9869 131.891 34.9869C133.761 34.9869 135.539 35.1702 137.226 35.5369C138.913 35.9036 140.654 36.5086 142.451 37.3519L139.976 43.2369C138.986 42.7969 138.033 42.4119 137.116 42.0819C136.199 41.7519 135.301 41.4952 134.421 41.3119C133.578 41.1286 132.698 41.0369 131.781 41.0369C130.571 41.0369 129.654 41.2019 129.031 41.5319C128.444 41.8619 128.151 42.3569 128.151 43.0169C128.151 43.4936 128.298 43.9336 128.591 44.3369C128.921 44.7036 129.526 45.1069 130.406 45.5469C131.323 45.9869 132.661 46.5736 134.421 47.3069C136.144 48.0036 137.629 48.7369 138.876 49.5069C140.123 50.2402 141.076 51.1752 141.736 52.3119C142.433 53.4119 142.781 54.8602 142.781 56.6569ZM165.885 34.9869C169.258 34.9869 171.99 36.3069 174.08 38.9469C176.17 41.5502 177.215 45.4002 177.215 50.4969C177.215 53.9069 176.72 56.7852 175.73 59.1319C174.74 61.4419 173.383 63.1836 171.66 64.3569C169.937 65.5302 167.938 66.1169 165.665 66.1169C164.235 66.1169 162.988 65.9336 161.925 65.5669C160.898 65.2002 160.018 64.7236 159.285 64.1369C158.552 63.5502 157.91 62.9269 157.36 62.2669H156.92C157.067 62.9636 157.177 63.6969 157.25 64.4669C157.323 65.2002 157.36 65.9336 157.36 66.6669V78.7669H149.165V35.5369H155.82L156.975 39.4419H157.36C157.91 38.6352 158.57 37.9019 159.34 37.2419C160.11 36.5452 161.027 35.9952 162.09 35.5919C163.19 35.1886 164.455 34.9869 165.885 34.9869ZM163.245 41.5319C161.815 41.5319 160.678 41.8252 159.835 42.4119C158.992 42.9986 158.368 43.8969 157.965 45.1069C157.598 46.2802 157.397 47.7652 157.36 49.5619V50.4419C157.36 52.3852 157.543 54.0352 157.91 55.3919C158.277 56.7119 158.9 57.7202 159.78 58.4169C160.66 59.1136 161.852 59.4619 163.355 59.4619C164.602 59.4619 165.628 59.1136 166.435 58.4169C167.242 57.7202 167.847 56.6936 168.25 55.3369C168.653 53.9802 168.855 52.3302 168.855 50.3869C168.855 47.4536 168.397 45.2536 167.48 43.7869C166.6 42.2836 165.188 41.5319 163.245 41.5319Z" fill="#272727"/>
<path d="M42.4227 126.59C45.5641 126.59 48.2507 127.19 50.4827 128.388C52.7561 129.587 54.5127 131.323 55.7527 133.596C56.9927 135.87 57.6127 138.66 57.6127 141.966V146.43H35.7887C35.8714 149.034 36.6361 151.08 38.0827 152.568C39.5707 154.056 41.6167 154.8 44.2207 154.8C46.4114 154.8 48.3954 154.594 50.1727 154.18C51.9501 153.726 53.7894 153.044 55.6907 152.134V159.264C54.0374 160.091 52.2807 160.69 50.4207 161.062C48.6021 161.476 46.3907 161.682 43.7867 161.682C40.3974 161.682 37.4007 161.062 34.7967 159.822C32.1927 158.541 30.1467 156.619 28.6587 154.056C27.1707 151.494 26.4267 148.27 26.4267 144.384C26.4267 140.416 27.0881 137.13 28.4107 134.526C29.7747 131.881 31.6554 129.897 34.0527 128.574C36.4501 127.252 39.2401 126.59 42.4227 126.59ZM42.4847 133.162C40.7074 133.162 39.2194 133.741 38.0207 134.898C36.8634 136.056 36.1814 137.854 35.9747 140.292H48.9327C48.9327 138.928 48.6847 137.709 48.1887 136.634C47.7341 135.56 47.0314 134.712 46.0807 134.092C45.1301 133.472 43.9314 133.162 42.4847 133.162ZM70.8366 143.764L59.9246 127.21H70.4026L76.9746 137.998L83.6086 127.21H94.0866L83.0506 143.764L94.5826 161.062H84.1046L76.9746 149.468L69.8446 161.062H59.3666L70.8366 143.764ZM112.289 161.682C108.941 161.682 106.089 161.083 103.733 159.884C101.377 158.644 99.5795 156.743 98.3395 154.18C97.0995 151.618 96.4795 148.332 96.4795 144.322C96.4795 140.189 97.1821 136.82 98.5875 134.216C99.9928 131.612 101.935 129.69 104.415 128.45C106.937 127.21 109.83 126.59 113.095 126.59C115.41 126.59 117.415 126.818 119.109 127.272C120.845 127.727 122.354 128.264 123.635 128.884L120.907 136.014C119.461 135.436 118.097 134.96 116.815 134.588C115.575 134.216 114.335 134.03 113.095 134.03C111.483 134.03 110.14 134.423 109.065 135.208C107.991 135.952 107.185 137.089 106.647 138.618C106.151 140.106 105.903 141.987 105.903 144.26C105.903 146.492 106.172 148.352 106.709 149.84C107.288 151.287 108.115 152.382 109.189 153.126C110.264 153.829 111.566 154.18 113.095 154.18C115.038 154.18 116.753 153.932 118.241 153.436C119.729 152.899 121.176 152.176 122.581 151.266V159.14C121.176 160.05 119.688 160.69 118.117 161.062C116.588 161.476 114.645 161.682 112.289 161.682ZM144.323 126.59C147.464 126.59 150.151 127.19 152.383 128.388C154.656 129.587 156.413 131.323 157.653 133.596C158.893 135.87 159.513 138.66 159.513 141.966V146.43H137.689C137.772 149.034 138.536 151.08 139.983 152.568C141.471 154.056 143.517 154.8 146.121 154.8C148.312 154.8 150.296 154.594 152.073 154.18C153.85 153.726 155.69 153.044 157.591 152.134V159.264C155.938 160.091 154.181 160.69 152.321 161.062C150.502 161.476 148.291 161.682 145.687 161.682C142.298 161.682 139.301 161.062 136.697 159.822C134.093 158.541 132.047 156.619 130.559 154.056C129.071 151.494 128.327 148.27 128.327 144.384C128.327 140.416 128.988 137.13 130.311 134.526C131.675 131.881 133.556 129.897 135.953 128.574C138.35 127.252 141.14 126.59 144.323 126.59ZM144.385 133.162C142.608 133.162 141.12 133.741 139.921 134.898C138.764 136.056 138.082 137.854 137.875 140.292H150.833C150.833 138.928 150.585 137.709 150.089 136.634C149.634 135.56 148.932 134.712 147.981 134.092C147.03 133.472 145.832 133.162 144.385 133.162ZM176.242 161.062H167.004V113.942H176.242V161.062ZM195.133 161.062H185.895V113.942H195.133V161.062ZM218.735 126.59C221.877 126.59 224.563 127.19 226.795 128.388C229.069 129.587 230.825 131.323 232.065 133.596C233.305 135.87 233.925 138.66 233.925 141.966V146.43H212.101C212.184 149.034 212.949 151.08 214.395 152.568C215.883 154.056 217.929 154.8 220.533 154.8C222.724 154.8 224.708 154.594 226.485 154.18C228.263 153.726 230.102 153.044 232.003 152.134V159.264C230.35 160.091 228.593 160.69 226.733 161.062C224.915 161.476 222.703 161.682 220.099 161.682C216.71 161.682 213.713 161.062 211.109 159.822C208.505 158.541 206.459 156.619 204.971 154.056C203.483 151.494 202.739 148.27 202.739 144.384C202.739 140.416 203.401 137.13 204.723 134.526C206.087 131.881 207.968 129.897 210.365 128.574C212.763 127.252 215.553 126.59 218.735 126.59ZM218.797 133.162C217.02 133.162 215.532 133.741 214.333 134.898C213.176 136.056 212.494 137.854 212.287 140.292H225.245C225.245 138.928 224.997 137.709 224.501 136.634C224.047 135.56 223.344 134.712 222.393 134.092C221.443 133.472 220.244 133.162 218.797 133.162ZM260.636 126.59C264.273 126.59 267.187 127.582 269.378 129.566C271.569 131.509 272.664 134.65 272.664 138.99V161.062H263.426V141.284C263.426 138.846 262.992 137.027 262.124 135.828C261.256 134.588 259.871 133.968 257.97 133.968C255.159 133.968 253.237 134.94 252.204 136.882C251.171 138.784 250.654 141.532 250.654 145.128V161.062H241.416V127.21H248.484L249.724 131.55H250.22C250.964 130.393 251.873 129.463 252.948 128.76C254.023 128.016 255.221 127.479 256.544 127.148C257.867 126.776 259.231 126.59 260.636 126.59ZM295.928 161.682C292.58 161.682 289.728 161.083 287.372 159.884C285.016 158.644 283.218 156.743 281.978 154.18C280.738 151.618 280.118 148.332 280.118 144.322C280.118 140.189 280.821 136.82 282.226 134.216C283.631 131.612 285.574 129.69 288.054 128.45C290.575 127.21 293.469 126.59 296.734 126.59C299.049 126.59 301.053 126.818 302.748 127.272C304.484 127.727 305.993 128.264 307.274 128.884L304.546 136.014C303.099 135.436 301.735 134.96 300.454 134.588C299.214 134.216 297.974 134.03 296.734 134.03C295.122 134.03 293.779 134.423 292.704 135.208C291.629 135.952 290.823 137.089 290.286 138.618C289.79 140.106 289.542 141.987 289.542 144.26C289.542 146.492 289.811 148.352 290.348 149.84C290.927 151.287 291.753 152.382 292.828 153.126C293.903 153.829 295.205 154.18 296.734 154.18C298.677 154.18 300.392 153.932 301.88 153.436C303.368 152.899 304.815 152.176 306.22 151.266V159.14C304.815 160.05 303.327 160.69 301.756 161.062C300.227 161.476 298.284 161.682 295.928 161.682ZM327.962 126.59C331.103 126.59 333.79 127.19 336.022 128.388C338.295 129.587 340.052 131.323 341.292 133.596C342.532 135.87 343.152 138.66 343.152 141.966V146.43H321.328C321.41 149.034 322.175 151.08 323.622 152.568C325.11 154.056 327.156 154.8 329.76 154.8C331.95 154.8 333.934 154.594 335.712 154.18C337.489 153.726 339.328 153.044 341.23 152.134V159.264C339.576 160.091 337.82 160.69 335.96 161.062C334.141 161.476 331.93 161.682 329.326 161.682C325.936 161.682 322.94 161.062 320.336 159.822C317.732 158.541 315.686 156.619 314.198 154.056C312.71 151.494 311.966 148.27 311.966 144.384C311.966 140.416 312.627 137.13 313.95 134.526C315.314 131.881 317.194 129.897 319.592 128.574C321.989 127.252 324.779 126.59 327.962 126.59ZM328.024 133.162C326.246 133.162 324.758 133.741 323.56 134.898C322.402 136.056 321.72 137.854 321.514 140.292H334.472C334.472 138.928 334.224 137.709 333.728 136.634C333.273 135.56 332.57 134.712 331.62 134.092C330.669 133.472 329.47 133.162 328.024 133.162Z" fill="white"/>
</svg>
